<svg xmlns="http://www.w3.org/2000/svg">	
   
   <symbol id="toparrow" viewBox="0 0 23 23">
       <path d="M15.71,12.46L12.2,9.26c-0.39-0.35-1.02-0.35-1.4,0l-3.51,3.19c-0.39,0.35-0.39,0.92,0,1.28
	c0.39,0.35,1.02,0.35,1.4,0l2.81-2.55l2.81,2.55c0.39,0.35,1.02,0.35,1.4,0C16.1,13.38,16.1,12.81,15.71,12.46z"/>
    </symbol>
    
    <symbol id="newsletter" viewBox="0 0 35 18">
        <path d="M23 9.77934444L32.4265377 3.18076808C32.878987 2.86405357 33.5025174 2.97408836 33.8192319 3.42653766 34.1359464 3.87898695 34.0259116 4.50251741 33.5734623 4.81923192L23.5734623 11.8192319C23.2291422 12.060256 22.7708578 12.060256 22.4265377 11.8192319L12.4265377 4.81923192C11.9740884 4.50251741 11.8640536 3.87898695 12.1807681 3.42653766 12.4974826 2.97408836 13.121013 2.86405357 13.5734623 3.18076808L23 9.77934444zM1 8L14 8C14.5522847 8 15 8.44771525 15 9 15 9.55228475 14.5522847 10 14 10L1 10C.44771525 10 0 9.55228475 0 9 0 8.44771525.44771525 8 1 8zM7 11L14 11C14.5522847 11 15 11.4477153 15 12 15 12.5522847 14.5522847 13 14 13L7 13C6.44771525 13 6 12.5522847 6 12 6 11.4477153 6.44771525 11 7 11z"/>
        <path d="M14,2 C13.4477153,2 13,2.44771525 13,3 L13,15 C13,15.5522847 13.4477153,16 14,16 L32,16 C32.5522847,16 33,15.5522847 33,15 L33,3 C33,2.44771525 32.5522847,2 32,2 L14,2 Z M11,11 L13,11 L13,10 L11,10 L11,3 C11,1.34314575 12.3431458,0 14,1.33226763e-15 L32,1.33226763e-15 C33.6568542,8.8817842e-16 35,1.34314575 35,3 L35,15 C35,16.6568542 33.6568542,18 32,18 L14,18 C12.3431458,18 11,16.6568542 11,15 L11,11 Z"/>
    </symbol>
    
    <symbol id="search" viewBox="0 0 24 23">
		<path d="M23.565 20.458l-6.847-6.847a8.974 8.974 0 1 0-1.935 2.28l6.674 6.675a1.49 1.49 0 0 0 2.107-2.107zM9 16a7 7 0 1 1 7-7 7.008 7.008 0 0 1-7 7z"/>
	</symbol>
    
    <!-- Social media icons -->

	<symbol id="facebook" viewBox="0 0 32 32">
		<path d="M30.234 0H1.766A1.766 1.766 0 0 0 0 1.766v28.468A1.766 1.766 0 0 0 1.766 32h15.326V19.608h-4.17v-4.83h4.17v-3.56c0-4.134 2.524-6.385 6.21-6.385a34.216 34.216 0 0 1 3.727.19v4.32h-2.557c-2.005 0-2.394.953-2.394 2.35v3.084h4.78l-.622 4.83h-4.16V32h8.154A1.766 1.766 0 0 0 32 30.234V1.766A1.766 1.766 0 0 0 30.234 0z" />
	</symbol>

	<symbol id="twitter" viewBox="0 0 24.999 20.316">
		<path d="M25 2.405a10.253 10.253 0 0 1-2.947.808A5.144 5.144 0 0 0 24.308.376 10.27 10.27 0 0 1 21.05 1.62a5.134 5.134 0 0 0-8.74 4.68A14.56 14.56 0 0 1 1.74.94a5.134 5.134 0 0 0 1.587 6.846 5.108 5.108 0 0 1-2.323-.642v.064a5.132 5.132 0 0 0 4.114 5.03 5.142 5.142 0 0 1-2.316.088 5.134 5.134 0 0 0 4.79 3.562 10.29 10.29 0 0 1-6.37 2.2A10.44 10.44 0 0 1 0 18.012a14.586 14.586 0 0 0 22.454-12.29q0-.333-.015-.662A10.423 10.423 0 0 0 25 2.405z" />
	</symbol>	

	<symbol id="instagram" viewBox="0 0 1024 1024"> 
		<path d="M873.984 150.016C773.973333 50.005333 653.312 0 512 0 370.688 0 250.026667 50.005333 150.016 150.016S0 370.688 0 512c0 141.312 50.005333 261.973333 150.016 361.984S370.688 1024 512 1024c141.312 0 261.973333-50.005333 361.984-150.016S1024 653.312 1024 512c0-141.312-50.005333-261.973333-150.016-361.984z m-41.984 491.975111c0 53.361778-18.318222 98.360889-55.011556 134.997333-36.636444 36.693333-81.635556 55.011556-134.997333 55.011556h-259.982222c-51.996444 0-96.028444-17.976889-131.982222-54.044444-36.010667-35.953778-55.352889-79.928889-58.026667-131.982223v-267.946666a183.296 183.296 0 0 1 58.026667-131.982223c37.319111-36.067556 81.351111-54.044444 131.982222-54.044444h259.982222c53.361778 0 98.360889 18.318222 134.997333 55.011556 36.693333 36.636444 55.011556 81.635556 55.011556 134.997333v259.982222zM641.991111 256h-259.982222c-34.702222 0-64.341333 12.344889-89.031111 36.977778-24.632889 24.689778-36.977778 54.328889-36.977778 89.031111v259.982222c0 34.702222 12.344889 64.341333 36.977778 89.031111 24.689778 24.632889 54.328889 36.977778 89.031111 36.977778h259.982222c34.702222 0 64.341333-12.344889 89.031111-36.977778 24.632889-24.689778 36.977778-54.328889 36.977778-89.031111v-259.982222c0-33.336889-12.686222-62.691556-38.001778-88.007111-25.315556-25.315556-54.613333-38.001778-88.007111-38.001778z m-3.982222 382.008889c-33.336889 33.336889-72.647111 50.005333-117.987556 50.005333-45.340444 0-84.707556-16.668444-118.044444-50.062222-33.336889-33.28-49.948444-72.590222-49.948445-117.930667 0-45.340444 16.611556-84.707556 49.948445-118.044444 33.336889-33.336889 72.704-49.948444 118.044444-49.948445 45.340444 0 84.650667 16.611556 117.987556 49.948445 33.336889 33.336889 50.005333 72.704 50.005333 118.044444 0 45.340444-16.668444 84.650667-50.062222 117.987556z m69.973333-266.012445a38.4 38.4 0 0 1-27.989333 12.003556 38.4 38.4 0 0 1-27.989333-11.946667 38.4 38.4 0 0 1-12.003556-28.046222c0-10.695111 3.982222-20.024889 11.946667-27.989333 8.078222-7.964444 17.408-12.003556 28.046222-12.003556 10.695111 0 20.024889 3.982222 27.989333 11.946667 7.964444 8.021333 12.003556 17.351111 12.003556 28.046222 0 10.638222-3.982222 19.968-11.946667 27.989333z m-115.996444 76.003556a98.190222 98.190222 0 0 0-71.964445-29.980444c-28.046222 0-51.996444 9.955556-72.021333 29.980444a98.190222 98.190222 0 0 0-29.980444 72.021333c0 27.989333 9.955556 51.996444 29.980444 71.964445 20.024889 20.024889 43.975111 30.037333 72.021333 30.037333 27.989333 0 51.996444-10.012444 71.964445-30.037333 20.024889-19.968 30.037333-43.975111 30.037333-71.964445 0-28.046222-10.012444-51.996444-30.037333-72.021333z" p-id="6177"></path>
	</symbol>

    <symbol id="linkedin" viewBox="0 0 34.48 32">
		<path d="M29.632,0H2.362A2.336,2.336,0,0,0,0,2.306V29.691A2.337,2.337,0,0,0,2.362,32h27.27A2.342,2.342,0,0,0,32,29.691V2.306A2.34,2.34,0,0,0,29.632,0ZM9.491,27.268H4.744V12H9.491ZM7.119,9.909a2.752,2.752,0,1,1,2.75-2.753A2.753,2.753,0,0,1,7.119,9.909ZM27.268,27.268H22.525V19.842c0-1.772-.033-4.05-2.466-4.05-2.47,0-2.848,1.929-2.848,3.921v7.555H12.468V12h4.553v2.086h.063a4.986,4.986,0,0,1,4.491-2.467c4.806,0,5.694,3.163,5.694,7.275Z" />
	</symbol>
	
	<symbol id="vimeo" viewBox="0 0 24.999 20.159">
		<path d="M26.105,5.927q3.628,0.1,3.641,4.123c0,0.176-.006.36-0.016,0.548q-0.16,3.416-5.09,9.306-5.089,6.17-8.634,6.183-2.205,0-3.671-3.779l-1.029-3.454L10.29,15.4q-1.124-3.749-2.406-3.746a7.819,7.819,0,0,0-1.95,1.091l-1.187-1.4,1.842-1.53L8.4,8.3a8.908,8.908,0,0,1,3.7-2.107,3.207,3.207,0,0,1,.341-0.016q2.606,0,3.249,3.746,0.356,2.137.594,3.473t0.387,1.867q0.862,3.544,1.859,3.559,0.766,0,2.36-2.31A9.305,9.305,0,0,0,22.562,13a2.969,2.969,0,0,0,.031-0.434,1.439,1.439,0,0,0-1.7-1.547,5.46,5.46,0,0,0-1.843.359q1.763-5.434,6.775-5.449h0.281Z" transform="translate(-4.747 -5.927)" />
	</symbol>

	<symbol id="youtube" viewBox="0 0 32 22.507">
		<path d="M31.68,9.6a6.924,6.924,0,0,0-1.272-3.176A4.577,4.577,0,0,0,27.2,5.07c-4.478-.324-11.2-0.324-11.2-0.324H15.993s-6.717,0-11.2.324A4.577,4.577,0,0,0,1.592,6.426,6.921,6.921,0,0,0,.32,9.6,48.4,48.4,0,0,0,0,14.781v2.428a48.4,48.4,0,0,0,.32,5.179,6.921,6.921,0,0,0,1.272,3.176A5.426,5.426,0,0,0,5.12,26.932C7.68,27.177,16,27.253,16,27.253s6.724-.01,11.2-0.334a4.577,4.577,0,0,0,3.206-1.355,6.923,6.923,0,0,0,1.272-3.176A48.46,48.46,0,0,0,32,17.209V14.781A48.46,48.46,0,0,0,31.68,9.6ZM12.7,20.151l0-8.991,8.647,4.511Z" transform="translate(0 -4.747)" />
	</symbol>
	

	<symbol id="pinterest" viewBox="0 0 32 32">
		<path d="M16 0a16 16 0 0 0-5.83 30.9 15.34 15.34 0 0 1 .055-4.59c.29-1.25 1.876-7.953 1.876-7.953a5.776 5.776 0 0 1-.478-2.375c0-2.225 1.29-3.886 2.9-3.886a2.01 2.01 0 0 1 2.024 2.254c0 1.373-.874 3.425-1.325 5.327a2.323 2.323 0 0 0 2.37 2.89c2.844 0 5.03-3 5.03-7.326a6.316 6.316 0 0 0-6.683-6.508 6.926 6.926 0 0 0-7.225 6.944 6.224 6.224 0 0 0 1.188 3.65.478.478 0 0 1 .11.46c-.12.504-.39 1.59-.443 1.814-.07.293-.232.355-.535.214-2-.93-3.248-3.852-3.248-6.2 0-5.047 3.667-9.682 10.572-9.682 5.55 0 9.864 3.955 9.864 9.24 0 5.515-3.477 9.953-8.3 9.953a4.282 4.282 0 0 1-3.667-1.837s-.8 3.055-1 3.8a17.885 17.885 0 0 1-1.99 4.195A16 16 0 1 0 16 0z" />
	</symbol>
	
     <symbol id="mix" viewBox="0 0 32 32">
	   <path d="M32,0v17.95c0,1.69-1.43,3.12-3.2,3.12c-1.77,0-3.2-1.42-3.2-3.12v-1.62c0-1.81-1.43-3.23-3.2-3.24
	c-1.77,0.01-3.2,1.43-3.2,3.24v4.61c-0.03,1.69-1.46,3.12-3.2,3.12c-1.79,0-3.22-1.42-3.2-3.12V8.48c-0.02-1.78-1.45-3.2-3.2-3.24
	C7.9,5.27,6.52,6.57,6.4,8.23c-0.01,0.06-0.01,0.14,0,0.25v2.96v0.03v17.42C6.4,30.58,4.97,32,3.2,32C1.43,32,0,30.58,0,28.88V17.45
	v-0.03V0h29.98h1.77H32z"/>
	</symbol>
	
	<symbol id="buffer" viewBox="0 0 32 32">	
		<path d="M.556,15.342,3.338,14a.954.954,0,0,1,1.091.025c.458.225,10.229,4.942,10.229,4.942a3.506,3.506,0,0,0,2.682,0s10.038-4.85,10.4-5.017a.689.689,0,0,1,.791-.008c.342.167,2.916,1.408,2.916,1.408.741.358.741.942-.017,1.292L17.333,23.45a3.506,3.506,0,0,1-2.682,0L.556,16.642C-.185,16.283-.185,15.7.556,15.342ZM.573,8.375l14.094,6.808a3.506,3.506,0,0,0,2.682,0L31.444,8.375c.741-.358.741-.942,0-1.3L17.349.267a3.506,3.506,0,0,0-2.682,0L.573,7.075C-.169,7.433-.169,8.017.573,8.375Zm30.871,15.25s-2.574-1.242-2.916-1.408a.689.689,0,0,0-.791.008c-.358.167-10.388,5.025-10.388,5.025a3.506,3.506,0,0,1-2.682,0S4.9,22.533,4.438,22.308a.954.954,0,0,0-1.091-.025L.564,23.625c-.741.358-.741.942,0,1.3l14.094,6.808A3.109,3.109,0,0,0,16,32a3.237,3.237,0,0,0,1.341-.267l14.094-6.808C32.185,24.567,32.185,23.983,31.444,23.625Z"/>
	</symbol>
	
     <symbol id="whatsapp" viewBox="0 0 32 32">
        <path d="M24.09,19.64c0.1,0.17,0.1,0.96-0.23,1.88c-0.33,0.93-1.92,1.77-2.69,1.88c-0.69,0.1-1.55,0.14-2.51-0.16
	c-0.58-0.18-1.32-0.43-2.27-0.83c-3.99-1.72-6.6-5.72-6.8-5.98c-0.2-0.26-1.63-2.15-1.63-4.1c0-1.95,1.03-2.91,1.39-3.31
	c0.36-0.4,0.8-0.5,1.06-0.5s0.53,0,0.76,0.01c0.24,0.01,0.57-0.09,0.9,0.68c0.33,0.79,1.13,2.74,1.23,2.94
	c0.1,0.2,0.17,0.43,0.03,0.69c-0.13,0.26-0.2,0.43-0.4,0.66s-0.42,0.52-0.6,0.69c-0.2,0.2-0.41,0.41-0.17,0.81
	c0.23,0.4,1.03,1.69,2.21,2.74c1.52,1.35,2.8,1.77,3.2,1.97c0.4,0.2,0.63,0.17,0.86-0.1c0.23-0.26,1-1.16,1.26-1.55
	c0.27-0.4,0.53-0.33,0.9-0.2c0.36,0.13,2.32,1.09,2.72,1.29C23.73,19.37,23.99,19.47,24.09,19.64z M32,15.87
	c0,8.74-7.15,15.86-15.93,15.86c0,0,0,0,0,0h-0.01c-2.67,0-5.29-0.67-7.61-1.93L0,32l2.26-8.22c-1.39-2.4-2.13-5.13-2.13-7.93
	C0.14,7.11,7.28,0,16.07,0c4.26,0,8.26,1.65,11.27,4.65C30.35,7.65,32,11.63,32,15.87z M29.31,15.87c0-3.52-1.37-6.83-3.88-9.32
	c-2.5-2.49-5.83-3.86-9.36-3.87c-7.3,0-13.25,5.91-13.25,13.18c0,2.49,0.7,4.92,2.02,7.01l0.31,0.5l-1.34,4.86l5.01-1.31l0.48,0.29
	c2.03,1.2,4.36,1.84,6.74,1.84h0.01C23.37,29.05,29.31,23.13,29.31,15.87z" />
    </symbol>

   	
	<symbol id="github" viewBox="0 0 1024 1024">	
		<path d="M0 520.886c0-69.368 13.51-135.697 40.498-199.02 26.987-63.323 63.322-117.826 109.006-163.51 45.65-45.65 100.154-81.985 163.51-109.006A502.289 502.289 0 0 1 512 8.92c69.335 0 135.663 13.477 198.986 40.497 63.356 26.988 117.86 63.323 163.51 109.007 45.684 45.65 82.02 100.154 109.006 163.51A502.289 502.289 0 0 1 1024 520.852c0 111.318-32.504 211.472-97.511 300.494-64.975 88.989-148.48 150.825-250.484 185.476-5.351 0-9.348-0.99-11.99-2.973-2.676-1.982-4.196-3.997-4.526-6.012a59.458 59.458 0 0 1-0.495-8.984 7.663 7.663 0 0 1-0.991-3.006v-128.99c0-40.63-14.336-75.314-43.008-103.986 76.667-13.345 134.011-41.819 171.999-85.487 37.987-43.669 57.013-96.52 57.013-158.522 0-58.005-18.663-108.346-56.022-150.99 13.345-42.678 11-87.668-6.97-135.003-18.697-1.322-39.011 1.85-61.01 9.513-22 7.663-38.318 14.831-49.02 21.47-10.637 6.673-20.316 13.016-28.97 19.027-38.68-10.669-81.854-16.02-129.486-16.02-47.7 0-90.509 5.351-128.529 16.02-7.333-5.35-15.855-11.164-25.5-17.507-9.68-6.342-26.493-14.005-50.507-22.99-23.982-9.018-45.65-12.85-65.008-11.495-18.663 47.996-20.645 93.646-5.979 136.984-36.665 42.678-54.998 92.986-54.998 150.99 0 62.002 18.663 114.689 55.99 157.994 37.326 43.339 94.67 72.01 171.998 86.016a142.303 142.303 0 0 0-39.969 70.029c-56.683 13.972-96.355 3.963-119.015-30.06-42.017-61.308-79.674-83.307-113.003-65.965-4.69 4.657-3.997 9.48 1.982 14.501 6.012 4.988 14.996 11.66 27.02 19.985 11.99 8.357 20.976 17.507 26.987 27.515 0.661 1.322 2.51 6.177 5.517 14.502a831.917 831.917 0 0 0 8.985 23.981c2.973 7.663 8.654 16.186 17.011 25.5 8.324 9.349 18.003 17.178 29.003 23.52 11 6.309 26.161 11 45.485 14.006 19.324 2.972 41.323 3.138 65.998 0.495v100.484c0 0.991-0.165 2.643-0.495 5.021-0.33 2.312-0.991 3.964-1.982 4.955-0.991 1.024-2.345 2.015-4.03 3.039a12.52 12.52 0 0 1-6.474 1.486c-2.676 0-6.012-0.33-10.009-0.99-101.343-35.345-183.825-97.182-247.51-185.51C31.842 731.037 0 631.577 0 520.92z" p-id="2972"></path>
	</symbol>

	<symbol id="email" viewBox="0 0 1024 1024">
		<path d="M512 0c282.752 0 512 229.248 512 512s-229.248 512-512 512S0 794.752 0 512 229.248 0 512 0z m-20.650667 591.274667c8.106667 7.936 18.944 7.936 27.050667 0l281.002667-257.536c5.418667-10.624 2.730667-26.538667-16.213334-26.538667L226.56 309.845333c-16.213333 0-29.738667 13.269333-16.213333 23.893334l281.002666 257.536z m313.472-156.629334c0-13.269333-16.213333-21.248-24.32-10.666666L558.933333 623.146667c-16.213333 13.312-35.157333 21.248-54.058666 21.248-18.901333 0-37.845333-7.936-54.058667-21.248l-218.88-199.082667c-10.794667-10.666667-24.32-2.645333-24.32 10.624-2.688-5.333333-2.688 278.741333-2.688 278.741333 0 26.538667 24.32 47.786667 51.328 47.786667H753.493333c27.008 0 51.328-21.248 51.328-47.786667v-278.741333z" p-id="4595"></path>
	</symbol>	

	<symbol id="rss" viewBox="0 0 1024 1024">
		<path d="M512 0C229.229714 0 0 229.229714 0 512 0 794.770286 229.229714 1024 512 1024 794.770286 1024 1024 794.770286 1024 512 1024 229.229714 794.770286 0 512 0L512 0ZM309.174857 766.317714C280.210286 766.317714 256.731429 742.838857 256.731429 713.910857 256.731429 684.946286 280.210286 661.467429 309.174857 661.467429 338.102857 661.467429 361.581714 684.946286 361.581714 713.910857 361.581714 742.838857 338.102857 766.317714 309.174857 766.317714L309.174857 766.317714ZM518.802286 767.378286C518.802286 622.372571 400.859429 504.429714 255.963429 504.429714L255.963429 393.728C462.409143 393.728 629.577143 561.078857 629.577143 767.378286L518.802286 767.378286 518.802286 767.378286ZM720.091429 767.378286C720.091429 511.414857 511.963429 303.140571 255.963429 303.140571L255.963429 192.438857C573.513143 192.438857 830.866286 449.938286 830.866286 767.378286L720.091429 767.378286 720.091429 767.378286Z" p-id="10614"></path>
	</symbol>

	<symbol id="logo" viewBox="0 0 1024 1024">
		<path d="M128 128l0 768 768 0L896 128 128 128zM556 558l0 144-80 0 0-144-132-240 94.2 0 79.4 167.2 76-167.2L684 318 556 558z" p-id="1979"></path>
	</symbol>

</svg>
